<svg xmlns="http://www.w3.org/2000/svg" width="34.982" height="27" viewBox="0 0 34.982 27">
  <g id="adicionar_pessoa_icon" transform="translate(-518.2 -856)">
    <path id="Caminho_12" data-name="Caminho 12" d="M7.875,15.75v-4.5H5.625v4.5h-4.5V18h4.5v4.5h2.25V18h4.5V15.75Z" transform="translate(517.575 851.5)" fill="#60ac63" stroke="#60ac63" stroke-linecap="round" stroke-linejoin="round" stroke-width="1"/>
    <g id="Elipse_2" data-name="Elipse 2" transform="translate(532.182 856)" fill="none" stroke="#60ac63" stroke-linecap="round" stroke-linejoin="round" stroke-width="3">
      <circle cx="7" cy="7" r="7" stroke="none"/>
      <circle cx="7" cy="7" r="5.5" fill="none"/>
    </g>
    <g id="Caminho_13" data-name="Caminho 13" transform="translate(525.182 872.431)" fill="none" stroke-linecap="round">
      <path d="M9.025-.123h10C24-.123,28,4.263,28,9.512v1.056H0V9.134A9.065,9.065,0,0,1,9.025-.123Z" stroke="none"/>
      <path d="M 9.0247802734375 2.877381801605225 C 7.413379669189453 2.877381801605225 5.907480239868164 3.504531860351563 4.784479141235352 4.64329195022583 C 3.99159049987793 5.447309494018555 3.444143295288086 6.454442501068115 3.180339813232422 7.568542003631592 L 8.891939163208008 7.568542003631592 L 24.7357063293457 7.568542003631592 C 24.44295501708984 6.521721839904785 23.91286468505859 5.561393737792969 23.17491912841797 4.764301776885986 C 22.04841995239258 3.547502040863037 20.57453918457031 2.877381801605225 19.0247802734375 2.877381801605225 L 9.0247802734375 2.877381801605225 M 9.0247802734375 -0.1226177215576172 L 19.0247802734375 -0.1226177215576172 C 23.99534034729004 -0.1226177215576172 28 4.262641906738281 28 9.512381553649902 L 28 10.56854152679443 L 8.891939163208008 10.56854152679443 L 0 10.56854152679443 L 0 9.133522033691406 C 0 3.883791923522949 4.054220199584961 -0.1226177215576172 9.0247802734375 -0.1226177215576172 Z" stroke="none" fill="#60ac63"/>
    </g>
  </g>
</svg>
